<svg xmlns="http://www.w3.org/2000/svg" xmlns:xlink="http://www.w3.org/1999/xlink" width="512" zoomAndPan="magnify" viewBox="0 0 384 383.999986" height="512" preserveAspectRatio="xMidYMid meet" version="1.0"><rect x="-38.4" width="460.8" fill="#ffffff" y="-38.399999" height="460.799983" fill-opacity="1"/><rect x="-38.4" width="460.8" fill="#ffffff" y="-38.399999" height="460.799983" fill-opacity="1"/><path fill="#000000" d="M 48 0 L 336 0 C 337.570312 0 339.140625 0.078125 340.703125 0.230469 C 342.269531 0.386719 343.824219 0.617188 345.363281 0.921875 C 346.90625 1.230469 348.429688 1.609375 349.933594 2.066406 C 351.4375 2.523438 352.917969 3.050781 354.367188 3.652344 C 355.820312 4.253906 357.242188 4.925781 358.628906 5.667969 C 360.011719 6.410156 361.359375 7.214844 362.667969 8.089844 C 363.972656 8.960938 365.234375 9.898438 366.449219 10.894531 C 367.667969 11.894531 368.828125 12.945312 369.941406 14.058594 C 371.050781 15.171875 372.105469 16.332031 373.105469 17.550781 C 374.101562 18.765625 375.039062 20.027344 375.910156 21.332031 C 376.785156 22.640625 377.589844 23.988281 378.332031 25.371094 C 379.074219 26.757812 379.746094 28.179688 380.347656 29.632812 C 380.949219 31.082031 381.476562 32.5625 381.933594 34.066406 C 382.390625 35.570312 382.769531 37.09375 383.078125 38.636719 C 383.382812 40.175781 383.613281 41.730469 383.769531 43.296875 C 383.921875 44.859375 384 46.429688 384 48 L 384 336 C 384 337.570312 383.921875 339.140625 383.769531 340.703125 C 383.613281 342.269531 383.382812 343.824219 383.078125 345.363281 C 382.769531 346.90625 382.390625 348.429688 381.933594 349.933594 C 381.476562 351.4375 380.949219 352.917969 380.347656 354.367188 C 379.746094 355.820312 379.074219 357.242188 378.332031 358.628906 C 377.589844 360.011719 376.785156 361.359375 375.910156 362.667969 C 375.039062 363.972656 374.101562 365.234375 373.105469 366.449219 C 372.105469 367.667969 371.050781 368.828125 369.941406 369.941406 C 368.828125 371.050781 367.667969 372.105469 366.449219 373.105469 C 365.234375 374.101562 363.972656 375.039062 362.667969 375.910156 C 361.359375 376.785156 360.011719 377.589844 358.628906 378.332031 C 357.242188 379.074219 355.820312 379.746094 354.367188 380.347656 C 352.917969 380.949219 351.4375 381.476562 349.933594 381.933594 C 348.429688 382.390625 346.90625 382.769531 345.363281 383.078125 C 343.824219 383.382812 342.269531 383.613281 340.703125 383.769531 C 339.140625 383.921875 337.570312 384 336 384 L 48 384 C 46.429688 384 44.859375 383.921875 43.296875 383.769531 C 41.730469 383.613281 40.175781 383.382812 38.636719 383.078125 C 37.09375 382.769531 35.570312 382.390625 34.066406 381.933594 C 32.5625 381.476562 31.082031 380.949219 29.632812 380.347656 C 28.179688 379.746094 26.757812 379.074219 25.371094 378.332031 C 23.988281 377.589844 22.640625 376.785156 21.332031 375.910156 C 20.027344 375.039062 18.765625 374.101562 17.550781 373.105469 C 16.332031 372.105469 15.171875 371.050781 14.058594 369.941406 C 12.949219 368.828125 11.894531 367.667969 10.894531 366.449219 C 9.898438 365.234375 8.960938 363.972656 8.089844 362.667969 C 7.214844 361.359375 6.410156 360.011719 5.667969 358.628906 C 4.925781 357.242188 4.253906 355.820312 3.652344 354.367188 C 3.050781 352.917969 2.523438 351.4375 2.066406 349.933594 C 1.609375 348.429688 1.230469 346.90625 0.921875 345.363281 C 0.617188 343.824219 0.386719 342.269531 0.230469 340.703125 C 0.078125 339.140625 0 337.570312 0 336 L 0 48 C 0 46.429688 0.078125 44.859375 0.230469 43.296875 C 0.386719 41.730469 0.617188 40.175781 0.921875 38.636719 C 1.230469 37.09375 1.609375 35.570312 2.066406 34.066406 C 2.523438 32.5625 3.050781 31.082031 3.652344 29.632812 C 4.253906 28.179688 4.925781 26.757812 5.667969 25.371094 C 6.410156 23.988281 7.214844 22.640625 8.089844 21.332031 C 8.960938 20.027344 9.898438 18.765625 10.894531 17.550781 C 11.894531 16.332031 12.949219 15.171875 14.058594 14.058594 C 15.171875 12.945312 16.332031 11.894531 17.550781 10.894531 C 18.765625 9.898438 20.027344 8.960938 21.332031 8.089844 C 22.640625 7.214844 23.988281 6.410156 25.371094 5.667969 C 26.757812 4.925781 28.179688 4.253906 29.632812 3.652344 C 31.082031 3.050781 32.5625 2.523438 34.066406 2.066406 C 35.570312 1.609375 37.09375 1.230469 38.636719 0.921875 C 40.175781 0.617188 41.730469 0.386719 43.296875 0.230469 C 44.859375 0.078125 46.429688 0 48 0 Z M 48 0 " fill-opacity="1" fill-rule="nonzero"/><path stroke-linecap="butt" transform="matrix(0.75, 0, 0, 0.75, 0.0000072, 0)" fill="none" stroke-linejoin="miter" d="M 184.000005 160.000013 L 328.000016 160.000013 C 328.786475 160.000013 329.567725 160.036471 330.354183 160.114596 C 331.135433 160.192721 331.911475 160.307304 332.682308 160.463554 C 333.453142 160.614596 334.213559 160.807304 334.968767 161.031263 C 335.718767 161.260429 336.45835 161.526054 337.182309 161.828138 C 337.911475 162.130221 338.619809 162.463555 339.312517 162.833346 C 340.005226 163.203138 340.682309 163.609388 341.333351 164.046888 C 341.989601 164.47918 342.619809 164.94793 343.223976 165.44793 C 343.833351 165.94793 344.416684 166.473972 344.968768 167.031263 C 345.526059 167.583347 346.052101 168.16668 346.552101 168.776055 C 347.052101 169.380222 347.520851 170.01043 347.953143 170.66668 C 348.390643 171.317722 348.796893 171.994805 349.166685 172.687514 C 349.536476 173.380222 349.86981 174.088555 350.171893 174.817722 C 350.473976 175.541681 350.739602 176.281264 350.968768 177.031264 C 351.192727 177.786472 351.385435 178.546889 351.536477 179.317723 C 351.692727 180.088556 351.80731 180.864598 351.885435 181.645848 C 351.96356 182.432306 352.000018 183.213556 352.000018 184.000015 L 352.000018 328.000026 C 352.000018 328.786484 351.96356 329.567734 351.885435 330.354193 C 351.80731 331.135443 351.692727 331.911485 351.536477 332.682318 C 351.385435 333.453151 351.192727 334.213568 350.968768 334.968777 C 350.739602 335.718777 350.473976 336.45836 350.171893 337.182318 C 349.86981 337.911485 349.536476 338.619818 349.166685 339.312527 C 348.796893 340.005235 348.390643 340.682319 347.953143 341.33336 C 347.520851 341.98961 347.052101 342.619819 346.552101 343.223986 C 346.052101 343.833361 345.526059 344.416694 344.968768 344.968777 C 344.416684 345.526069 343.833351 346.052111 343.223976 346.552111 C 342.619809 347.052111 341.989601 347.520861 341.333351 347.953153 C 340.682309 348.390653 340.005226 348.796903 339.312517 349.166694 C 338.619809 349.536486 337.911475 349.869819 337.182309 350.171903 C 336.45835 350.473986 335.718767 350.739611 334.968767 350.968778 C 334.213559 351.192736 333.453142 351.385444 332.682308 351.536486 C 331.911475 351.692736 331.135433 351.80732 330.354183 351.885445 C 329.567725 351.96357 328.786475 352.000028 328.000016 352.000028 L 184.000005 352.000028 C 183.213547 352.000028 182.432297 351.96357 181.645838 351.885445 C 180.864588 351.80732 180.088546 351.692736 179.317713 351.536486 C 178.54688 351.385444 177.786463 351.192736 177.031254 350.968778 C 176.281254 350.739611 175.541671 350.473986 174.817713 350.171903 C 174.088546 349.869819 173.380212 349.536486 172.687504 349.166694 C 171.994796 348.796903 171.317712 348.390653 170.666671 347.953153 C 170.010421 347.520861 169.380212 347.052111 168.776045 346.552111 C 168.16667 346.052111 167.583337 345.526069 167.031254 344.968777 C 166.473962 344.416694 165.94792 343.833361 165.44792 343.223986 C 164.94792 342.619819 164.47917 341.98961 164.046878 341.33336 C 163.609378 340.682319 163.203128 340.005235 162.833337 339.312527 C 162.463545 338.619818 162.130212 337.911485 161.828128 337.182318 C 161.526045 336.45836 161.26042 335.718777 161.031253 334.968777 C 160.807295 334.213568 160.614586 333.453151 160.463545 332.682318 C 160.307295 331.911485 160.192711 331.135443 160.114586 330.354193 C 160.036461 329.567734 160.000003 328.786484 160.000003 328.000026 L 160.000003 184.000015 C 160.000003 183.213556 160.036461 182.432306 160.114586 181.645848 C 160.192711 180.864598 160.307295 180.088556 160.463545 179.317723 C 160.614586 178.546889 160.807295 177.786472 161.031253 177.031264 C 161.26042 176.281264 161.526045 175.541681 161.828128 174.817722 C 162.130212 174.088555 162.463545 173.380222 162.833337 172.687514 C 163.203128 171.994805 163.609378 171.317722 164.046878 170.66668 C 164.47917 170.01043 164.94792 169.380222 165.44792 168.776055 C 165.94792 168.16668 166.473962 167.583347 167.031254 167.031263 C 167.583337 166.473972 168.16667 165.94793 168.776045 165.44793 C 169.380212 164.94793 170.010421 164.47918 170.666671 164.046888 C 171.317712 163.609388 171.994796 163.203138 172.687504 162.833346 C 173.380212 162.463555 174.088546 162.130221 174.817713 161.828138 C 175.541671 161.526054 176.281254 161.260429 177.031254 161.031263 C 177.786463 160.807304 178.54688 160.614596 179.317713 160.463554 C 180.088546 160.307304 180.864588 160.192721 181.645838 160.114596 C 182.432297 160.036471 183.213547 160.000013 184.000005 160.000013 Z M 184.000005 160.000013 " stroke="#06b6d4" stroke-width="20" stroke-opacity="1" stroke-miterlimit="4"/><path fill="#06b6d4" d="M 177 162 C 177 162.984375 176.902344 163.960938 176.710938 164.925781 C 176.519531 165.890625 176.234375 166.832031 175.859375 167.738281 C 175.480469 168.648438 175.019531 169.515625 174.472656 170.332031 C 173.925781 171.152344 173.304688 171.910156 172.605469 172.605469 C 171.910156 173.304688 171.152344 173.925781 170.332031 174.472656 C 169.515625 175.019531 168.648438 175.480469 167.742188 175.859375 C 166.832031 176.234375 165.890625 176.519531 164.925781 176.710938 C 163.960938 176.902344 162.984375 177 162 177 C 161.015625 177 160.039062 176.902344 159.074219 176.710938 C 158.109375 176.519531 157.167969 176.234375 156.257812 175.859375 C 155.351562 175.480469 154.484375 175.019531 153.667969 174.472656 C 152.847656 173.925781 152.089844 173.304688 151.394531 172.605469 C 150.695312 171.910156 150.074219 171.152344 149.527344 170.332031 C 148.980469 169.515625 148.519531 168.648438 148.140625 167.738281 C 147.765625 166.832031 147.480469 165.890625 147.289062 164.925781 C 147.097656 163.960938 147 162.984375 147 162 C 147 161.015625 147.097656 160.039062 147.289062 159.074219 C 147.480469 158.109375 147.765625 157.167969 148.140625 156.257812 C 148.519531 155.351562 148.980469 154.484375 149.527344 153.667969 C 150.074219 152.847656 150.695312 152.089844 151.394531 151.394531 C 152.089844 150.695312 152.847656 150.074219 153.667969 149.527344 C 154.484375 148.980469 155.351562 148.519531 156.257812 148.140625 C 157.167969 147.765625 158.109375 147.480469 159.074219 147.289062 C 160.039062 147.097656 161.015625 147 162 147 C 162.984375 147 163.960938 147.097656 164.925781 147.289062 C 165.890625 147.480469 166.832031 147.765625 167.742188 148.140625 C 168.648438 148.519531 169.515625 148.980469 170.332031 149.527344 C 171.152344 150.074219 171.910156 150.695312 172.605469 151.394531 C 173.304688 152.089844 173.925781 152.847656 174.472656 153.667969 C 175.019531 154.484375 175.480469 155.351562 175.859375 156.257812 C 176.234375 157.167969 176.519531 158.109375 176.710938 159.074219 C 176.902344 160.039062 177 161.015625 177 162 Z M 177 162 " fill-opacity="1" fill-rule="nonzero"/><path fill="#06b6d4" d="M 237 162 C 237 162.984375 236.902344 163.960938 236.710938 164.925781 C 236.519531 165.890625 236.234375 166.832031 235.859375 167.738281 C 235.480469 168.648438 235.019531 169.515625 234.472656 170.332031 C 233.925781 171.152344 233.304688 171.910156 232.605469 172.605469 C 231.910156 173.304688 231.152344 173.925781 230.332031 174.472656 C 229.515625 175.019531 228.648438 175.480469 227.738281 175.859375 C 226.832031 176.234375 225.890625 176.519531 224.925781 176.710938 C 223.960938 176.902344 222.984375 177 222 177 C 221.015625 177 220.039062 176.902344 219.074219 176.710938 C 218.109375 176.519531 217.167969 176.234375 216.257812 175.859375 C 215.351562 175.480469 214.484375 175.019531 213.667969 174.472656 C 212.847656 173.925781 212.089844 173.304688 211.394531 172.605469 C 210.695312 171.910156 210.074219 171.152344 209.527344 170.332031 C 208.980469 169.515625 208.519531 168.648438 208.140625 167.738281 C 207.765625 166.832031 207.480469 165.890625 207.289062 164.925781 C 207.097656 163.960938 207 162.984375 207 162 C 207 161.015625 207.097656 160.039062 207.289062 159.074219 C 207.480469 158.109375 207.765625 157.167969 208.140625 156.257812 C 208.519531 155.351562 208.980469 154.484375 209.527344 153.667969 C 210.074219 152.847656 210.695312 152.089844 211.394531 151.394531 C 212.089844 150.695312 212.847656 150.074219 213.667969 149.527344 C 214.484375 148.980469 215.351562 148.519531 216.257812 148.140625 C 217.167969 147.765625 218.109375 147.480469 219.074219 147.289062 C 220.039062 147.097656 221.015625 147 222 147 C 222.984375 147 223.960938 147.097656 224.925781 147.289062 C 225.890625 147.480469 226.832031 147.765625 227.738281 148.140625 C 228.648438 148.519531 229.515625 148.980469 230.332031 149.527344 C 231.152344 150.074219 231.910156 150.695312 232.605469 151.394531 C 233.304688 152.089844 233.925781 152.847656 234.472656 153.667969 C 235.019531 154.484375 235.480469 155.351562 235.859375 156.257812 C 236.234375 157.167969 236.519531 158.109375 236.710938 159.074219 C 236.902344 160.039062 237 161.015625 237 162 Z M 237 162 " fill-opacity="0.5" fill-rule="nonzero"/><path fill="#06b6d4" d="M 177 222 C 177 222.984375 176.902344 223.960938 176.710938 224.925781 C 176.519531 225.890625 176.234375 226.832031 175.859375 227.738281 C 175.480469 228.648438 175.019531 229.515625 174.472656 230.332031 C 173.925781 231.152344 173.304688 231.910156 172.605469 232.605469 C 171.910156 233.304688 171.152344 233.925781 170.332031 234.472656 C 169.515625 235.019531 168.648438 235.480469 167.742188 235.859375 C 166.832031 236.234375 165.890625 236.519531 164.925781 236.710938 C 163.960938 236.902344 162.984375 237 162 237 C 161.015625 237 160.039062 236.902344 159.074219 236.710938 C 158.109375 236.519531 157.167969 236.234375 156.257812 235.859375 C 155.351562 235.480469 154.484375 235.019531 153.667969 234.472656 C 152.847656 233.925781 152.089844 233.304688 151.394531 232.605469 C 150.695312 231.910156 150.074219 231.152344 149.527344 230.332031 C 148.980469 229.515625 148.519531 228.648438 148.140625 227.738281 C 147.765625 226.832031 147.480469 225.890625 147.289062 224.925781 C 147.097656 223.960938 147 222.984375 147 222 C 147 221.015625 147.097656 220.039062 147.289062 219.074219 C 147.480469 218.109375 147.765625 217.167969 148.140625 216.257812 C 148.519531 215.351562 148.980469 214.484375 149.527344 213.667969 C 150.074219 212.847656 150.695312 212.089844 151.394531 211.394531 C 152.089844 210.695312 152.847656 210.074219 153.667969 209.527344 C 154.484375 208.980469 155.351562 208.519531 156.257812 208.140625 C 157.167969 207.765625 158.109375 207.480469 159.074219 207.289062 C 160.039062 207.097656 161.015625 207 162 207 C 162.984375 207 163.960938 207.097656 164.925781 207.289062 C 165.890625 207.480469 166.832031 207.765625 167.742188 208.140625 C 168.648438 208.519531 169.515625 208.980469 170.332031 209.527344 C 171.152344 210.074219 171.910156 210.695312 172.605469 211.394531 C 173.304688 212.089844 173.925781 212.847656 174.472656 213.667969 C 175.019531 214.484375 175.480469 215.351562 175.859375 216.257812 C 176.234375 217.167969 176.519531 218.109375 176.710938 219.074219 C 176.902344 220.039062 177 221.015625 177 222 Z M 177 222 " fill-opacity="0.5" fill-rule="nonzero"/><path fill="#06b6d4" d="M 237 222 C 237 222.984375 236.902344 223.960938 236.710938 224.925781 C 236.519531 225.890625 236.234375 226.832031 235.859375 227.738281 C 235.480469 228.648438 235.019531 229.515625 234.472656 230.332031 C 233.925781 231.152344 233.304688 231.910156 232.605469 232.605469 C 231.910156 233.304688 231.152344 233.925781 230.332031 234.472656 C 229.515625 235.019531 228.648438 235.480469 227.738281 235.859375 C 226.832031 236.234375 225.890625 236.519531 224.925781 236.710938 C 223.960938 236.902344 222.984375 237 222 237 C 221.015625 237 220.039062 236.902344 219.074219 236.710938 C 218.109375 236.519531 217.167969 236.234375 216.257812 235.859375 C 215.351562 235.480469 214.484375 235.019531 213.667969 234.472656 C 212.847656 233.925781 212.089844 233.304688 211.394531 232.605469 C 210.695312 231.910156 210.074219 231.152344 209.527344 230.332031 C 208.980469 229.515625 208.519531 228.648438 208.140625 227.738281 C 207.765625 226.832031 207.480469 225.890625 207.289062 224.925781 C 207.097656 223.960938 207 222.984375 207 222 C 207 221.015625 207.097656 220.039062 207.289062 219.074219 C 207.480469 218.109375 207.765625 217.167969 208.140625 216.257812 C 208.519531 215.351562 208.980469 214.484375 209.527344 213.667969 C 210.074219 212.847656 210.695312 212.089844 211.394531 211.394531 C 212.089844 210.695312 212.847656 210.074219 213.667969 209.527344 C 214.484375 208.980469 215.351562 208.519531 216.257812 208.140625 C 217.167969 207.765625 218.109375 207.480469 219.074219 207.289062 C 220.039062 207.097656 221.015625 207 222 207 C 222.984375 207 223.960938 207.097656 224.925781 207.289062 C 225.890625 207.480469 226.832031 207.765625 227.738281 208.140625 C 228.648438 208.519531 229.515625 208.980469 230.332031 209.527344 C 231.152344 210.074219 231.910156 210.695312 232.605469 211.394531 C 233.304688 212.089844 233.925781 212.847656 234.472656 213.667969 C 235.019531 214.484375 235.480469 215.351562 235.859375 216.257812 C 236.234375 217.167969 236.519531 218.109375 236.710938 219.074219 C 236.902344 220.039062 237 221.015625 237 222 Z M 237 222 " fill-opacity="1" fill-rule="nonzero"/><path fill="#06b6d4" d="M 198 48 L 198 66 L 186 66 L 186 48 M 198 84 L 198 102 L 186 102 L 186 84 " fill-opacity="1" fill-rule="nonzero"/><path fill="#06b6d4" d="M 198 276 L 198 294 L 186 294 L 186 276 M 198 312 L 198 330 L 186 330 L 186 312 " fill-opacity="1" fill-rule="nonzero"/><path fill="#06b6d4" d="M 48 186 L 66 186 L 66 198 L 48 198 M 84 186 L 102 186 L 102 198 L 84 198 " fill-opacity="1" fill-rule="nonzero"/><path fill="#06b6d4" d="M 276 186 L 294 186 L 294 198 L 276 198 M 312 186 L 330 186 L 330 198 L 312 198 " fill-opacity="1" fill-rule="nonzero"/></svg>